<svg xmlns="http://www.w3.org/2000/svg" xmlns:xlink="http://www.w3.org/1999/xlink" width="0" height="0" style="display:none;"><symbol viewBox="0 0 24 24" id="settings-line"><path d="M12 1L21.5 6.5V17.5L12 23L2.5 17.5V6.5L12 1ZM12 3.311L4.5 7.65311V16.3469L12 20.689L19.5 16.3469V7.65311L12 3.311ZM12 16C9.79086 16 8 14.2091 8 12C8 9.79086 9.79086 8 12 8C14.2091 8 16 9.79086 16 12C16 14.2091 14.2091 16 12 16ZM12 14C13.1046 14 14 13.1046 14 12C14 10.8954 13.1046 10 12 10C10.8954 10 10 10.8954 10 12C10 13.1046 10.8954 14 12 14Z"></path></symbol><symbol viewBox="0 0 24 24" id="arrow-left-fill"><path d="M12 13V20L4 12L12 4V11H20V13H12Z"></path></symbol><symbol viewBox="0 0 24 24" id="arrow-left-double-fill"><path d="M4.83582 12L11.0429 18.2071L12.4571 16.7929L7.66424 12L12.4571 7.20712L11.0429 5.79291L4.83582 12ZM10.4857 12L16.6928 18.2071L18.107 16.7929L13.3141 12L18.107 7.20712L16.6928 5.79291L10.4857 12Z"></path></symbol><symbol viewBox="0 0 24 24" id="restart-line"><path d="M18.5374 19.5674C16.7844 21.0831 14.4993 22 12 22C6.47715 22 2 17.5228 2 12C2 6.47715 6.47715 2 12 2C17.5228 2 22 6.47715 22 12C22 14.1361 21.3302 16.1158 20.1892 17.7406L17 12H20C20 7.58172 16.4183 4 12 4C7.58172 4 4 7.58172 4 12C4 16.4183 7.58172 20 12 20C14.1502 20 16.1022 19.1517 17.5398 17.7716L18.5374 19.5674Z"></path></symbol><symbol viewBox="0 0 24 24" id="crosshair-line"><path d="M13 19.9381C16.6187 19.4869 19.4869 16.6187 19.9381 13H17V11H19.9381C19.4869 7.38128 16.6187 4.51314 13 4.06189V7H11V4.06189C7.38128 4.51314 4.51314 7.38128 4.06189 11H7V13H4.06189C4.51314 16.6187 7.38128 19.4869 11 19.9381V17H13V19.9381ZM12 22C6.47715 22 2 17.5228 2 12C2 6.47715 6.47715 2 12 2C17.5228 2 22 6.47715 22 12C22 17.5228 17.5228 22 12 22ZM12 14C10.8954 14 10 13.1046 10 12C10 10.8954 10.8954 10 12 10C13.1046 10 14 10.8954 14 12C14 13.1046 13.1046 14 12 14Z"></path></symbol><symbol viewBox="0 0 24 24" id="play-line"><path d="M16.3944 12.0001L10 7.7371V16.263L16.3944 12.0001ZM19.376 12.4161L8.77735 19.4818C8.54759 19.635 8.23715 19.5729 8.08397 19.3432C8.02922 19.261 8 19.1645 8 19.0658V4.93433C8 4.65818 8.22386 4.43433 8.5 4.43433C8.59871 4.43433 8.69522 4.46355 8.77735 4.5183L19.376 11.584C19.6057 11.7372 19.6678 12.0477 19.5146 12.2774C19.478 12.3323 19.4309 12.3795 19.376 12.4161Z"></path></symbol><symbol viewBox="0 0 24 24" id="arrow-right-fill"><path d="M12 13H4V11H12V4L20 12L12 20V13Z"></path></symbol></svg>